<?xml version="1.0" encoding="UTF-8" standalone="no"?>
<svg
   version="1.0"
   width="511.64795pt"
   height="511.36493pt"
   viewBox="0 0 511.64795 511.36493"
   preserveAspectRatio="xMidYMid meet"
   id="svg8"
   sodipodi:docname="output.svg"
   xmlns:inkscape="http://www.inkscape.org/namespaces/inkscape"
   xmlns:sodipodi="http://sodipodi.sourceforge.net/DTD/sodipodi-0.dtd"
   xmlns="http://www.w3.org/2000/svg"
   xmlns:svg="http://www.w3.org/2000/svg">
  <defs
     id="defs12" />
  <sodipodi:namedview
     id="namedview10"
     pagecolor="#ffffff"
     bordercolor="#666666"
     borderopacity="1.0"
     inkscape:pageshadow="2"
     inkscape:pageopacity="0.0"
     inkscape:pagecheckerboard="0"
     inkscape:document-units="pt" />
  <metadata
     id="metadata2">
Created by potrace 1.11, written by Peter Selinger 2001-2013
</metadata>
  <g
     transform="matrix(0.1,0,0,-0.1,-0.17602014,511.54095)"
     fill="#000000"
     stroke="none"
     id="g6">
    <path
       d="M 2310,5109 C 1808,5054 1336,4860 955,4553 826,4449 615,4232 522,4108 257,3754 88,3350 24,2915 2,2768 -5,2487 9,2340 51,1907 189,1507 414,1166 828,537 1461,134 2205,24 2352,2 2633,-5 2780,9 c 433,42 833,180 1174,405 629,414 1032,1047 1142,1791 22,147 29,428 15,575 -51,524 -238,988 -558,1385 -104,129 -321,340 -445,433 -354,265 -755,432 -1193,498 -121,18 -487,26 -605,13 z m 909,-2348 c 347,-607 631,-1105 631,-1107 0,-2 -569,-4 -1265,-4 -696,0 -1265,2 -1265,5 0,8 1263,2216 1266,2212 1,-1 287,-499 633,-1106 z"
       id="path4" />
  </g>
</svg>
